<svg width="533" height="533" viewBox="0 0 533 533" fill="none" xmlns="http://www.w3.org/2000/svg">
<circle cx="266.5" cy="266.5" r="258.5" stroke="url(#paint0_linear_213_530)" stroke-width="16"/>
<path fill-rule="evenodd" clip-rule="evenodd" d="M249.928 116C217.558 116.039 186.013 126.164 159.71 144.954C133.407 163.745 113.665 190.261 103.249 220.787C92.834 251.313 92.2672 284.319 101.629 315.182C110.99 346.045 129.81 373.217 155.453 392.893C181.095 412.569 212.275 423.761 244.624 424.903C276.973 426.045 308.87 417.078 335.846 399.26C362.823 381.441 383.527 355.663 395.058 325.538C406.589 295.413 408.369 262.449 400.149 231.266L398.793 232.016L370.474 220.5L341.1 237.417C349.517 260.177 349.057 285.255 339.81 307.694C330.564 330.132 313.203 348.301 291.159 358.608C269.115 368.916 243.991 370.613 220.752 363.364C197.513 356.115 177.849 340.448 165.645 319.458C153.441 298.468 149.586 273.682 154.842 249.998C160.097 226.314 174.08 205.455 194.028 191.542C213.976 177.63 238.437 171.675 262.579 174.856C286.721 178.037 308.787 190.122 324.417 208.723L353.941 191.918L358.084 161.911L359.402 161.161C330.407 132.363 291.139 116.178 250.191 116.15L249.928 116ZM408.923 172.001C410.132 172.169 411.286 172.609 412.298 173.288C413.31 173.967 414.153 174.867 414.763 175.92C415.373 176.972 415.734 178.149 415.819 179.362C415.903 180.574 415.709 181.79 415.25 182.916L437.281 191.918C438.038 192.226 438.694 192.739 439.173 193.4C439.652 194.061 439.935 194.842 439.99 195.655C440.045 196.469 439.87 197.281 439.484 197.999C439.098 198.718 438.517 199.314 437.808 199.72L398.153 222.488L369.834 210.973L253.957 277.589C253.045 278.192 252.019 278.603 250.941 278.796C249.864 278.989 248.758 278.961 247.692 278.712C246.626 278.464 245.622 278 244.743 277.351C243.863 276.701 243.127 275.879 242.578 274.935C242.03 273.992 241.681 272.946 241.554 271.863C241.426 270.78 241.523 269.682 241.837 268.638C242.152 267.593 242.678 266.624 243.383 265.79C244.088 264.955 244.956 264.273 245.936 263.786L361.812 197.132L365.955 167.125L405.647 144.319C406.354 143.912 407.162 143.711 407.979 143.738C408.795 143.765 409.588 144.019 410.266 144.473C410.945 144.926 411.482 145.559 411.817 146.301C412.152 147.043 412.272 147.864 412.162 148.67L408.923 172.189V172.001ZM249.928 232.016C257.799 231.994 265.488 234.376 271.958 238.842L241.831 256.284C238.084 258.517 235.368 262.126 234.268 266.335C233.168 270.544 233.772 275.015 235.951 278.784C238.129 282.552 241.708 285.318 245.914 286.484C250.121 287.65 254.619 287.123 258.439 285.016L288.792 267.574C288.792 268.587 288.792 269.6 288.792 270.65C288.792 278.291 286.517 285.761 282.255 292.114C277.992 298.468 271.934 303.419 264.847 306.344C257.759 309.268 249.96 310.033 242.436 308.542C234.911 307.051 228 303.372 222.575 297.969C217.151 292.566 213.456 285.682 211.96 278.187C210.463 270.693 211.231 262.925 214.167 255.865C217.103 248.806 222.074 242.772 228.453 238.527C234.832 234.282 242.331 232.016 250.003 232.016H249.928Z" fill="url(#paint1_linear_213_530)"/>
<defs>
<linearGradient id="paint0_linear_213_530" x1="266.5" y1="0" x2="266.5" y2="533" gradientUnits="userSpaceOnUse">
<stop stop-color="#1FBDBE"/>
<stop offset="1" stop-color="#144959"/>
</linearGradient>
<linearGradient id="paint1_linear_213_530" x1="267.5" y1="116" x2="267.5" y2="425" gradientUnits="userSpaceOnUse">
<stop stop-color="#1FBDBE"/>
<stop offset="1" stop-color="#144959"/>
</linearGradient>
</defs>
</svg>
