<svg width="533" height="533" viewBox="0 0 533 533" fill="none" xmlns="http://www.w3.org/2000/svg">
<circle cx="266.5" cy="266.5" r="258.5" stroke="url(#paint0_linear_213_529)" stroke-width="16"/>
<path d="M408.515 379.419L326.003 296.904L318.506 304.405L301.061 286.956C315.791 269.101 324.651 246.226 324.651 221.324C324.651 164.349 278.298 118 221.324 118C164.349 118 118 164.352 118 221.324C118 278.298 164.349 324.644 221.324 324.644C245.78 324.644 268.258 316.089 285.967 301.838L303.525 319.392L296.028 326.886L378.54 409.398C382.677 413.535 388.104 415.606 393.528 415.606C398.951 415.606 404.371 413.535 408.512 409.398C416.793 401.117 416.793 387.697 408.515 379.419ZM139.198 221.32C139.198 176.036 176.04 139.192 221.324 139.192C266.611 139.192 303.452 176.036 303.452 221.32C303.452 266.604 266.611 303.445 221.324 303.445C176.04 303.445 139.198 266.608 139.198 221.32Z" fill="url(#paint1_linear_213_529)"/>
<path d="M259.517 182.895C279.291 202.665 288.16 228.553 285.366 251.491C289.05 242.846 291.09 233.335 291.09 223.348C291.09 183.692 258.945 151.551 219.293 151.551C209.66 151.551 200.476 153.462 192.079 156.901C214.726 154.537 240.082 163.459 259.517 182.895Z" fill="url(#paint2_linear_213_529)"/>
<defs>
<linearGradient id="paint0_linear_213_529" x1="266.5" y1="0" x2="266.5" y2="533" gradientUnits="userSpaceOnUse">
<stop stop-color="#1FBDBE"/>
<stop offset="1" stop-color="#144959"/>
</linearGradient>
<linearGradient id="paint1_linear_213_529" x1="266.362" y1="118" x2="266.362" y2="415.606" gradientUnits="userSpaceOnUse">
<stop stop-color="#1FBDBE"/>
<stop offset="1" stop-color="#144959"/>
</linearGradient>
<linearGradient id="paint2_linear_213_529" x1="241.585" y1="151.551" x2="241.585" y2="251.491" gradientUnits="userSpaceOnUse">
<stop stop-color="#1FBDBE"/>
<stop offset="1" stop-color="#144959"/>
</linearGradient>
</defs>
</svg>
